<svg xmlns="http://www.w3.org/2000/svg" version="1.1" xmlns:xlink="http://www.w3.org/1999/xlink" xmlns:svgjs="http://svgjs.dev/svgjs" width="1500" height="935" viewBox="0 0 1500 935"><g transform="matrix(1,0,0,1,-0.9090909090909918,0.3785425101214628)"><svg viewBox="0 0 396 247" data-background-color="#ffffff" preserveAspectRatio="xMidYMid meet" height="935" width="1500" xmlns="http://www.w3.org/2000/svg" xmlns:xlink="http://www.w3.org/1999/xlink"><g id="tight-bounds" transform="matrix(1,0,0,1,0.2400000000000091,-0.09999999999999432)"><svg viewBox="0 0 395.52 247.2" height="247.2" width="395.52"><g><svg></svg></g><g><svg viewBox="0 0 395.52 247.2" height="247.2" width="395.52"><g transform="matrix(1,0,0,1,131.52346628571428,47.215199999999996)"><svg viewBox="0 0 132.47306742857143 152.7696" height="152.7696" width="132.47306742857143"><g><svg viewBox="0 0 132.47306742857143 152.7696" height="152.7696" width="132.47306742857143"><g><svg viewBox="0 0 132.47306742857143 152.7696" height="152.7696" width="132.47306742857143"><g><svg viewBox="0 0 132.47306742857143 152.7696" height="152.7696" width="132.47306742857143"><g id="textblocktransform"><svg viewBox="0 0 132.47306742857143 152.7696" height="152.7696" width="132.47306742857143" id="textblock"><g><svg viewBox="0 0 132.47306742857143 152.7696" height="152.7696" width="132.47306742857143"><g transform="matrix(1,0,0,1,0,0)"><svg width="132.47306742857143" viewBox="4 -35 30.35 35" height="152.7696" data-palette-color="#00ebff"><path d="M16.95 0L4 0 4-35 16.95-35Q22.03-35 25.95-32.93 29.88-30.85 32.11-26.94 34.35-23.03 34.35-17.5L34.35-17.5Q34.35-11.98 32.11-8.06 29.88-4.15 25.95-2.08 22.03 0 16.95 0L16.95 0ZM8.75-30.7L8.75-4.3 16.95-4.3Q20.95-4.3 23.66-5.96 26.38-7.63 27.76-10.6 29.15-13.58 29.15-17.5L29.15-17.5Q29.15-21.43 27.76-24.4 26.38-27.38 23.66-29.04 20.95-30.7 16.95-30.7L16.95-30.7 8.75-30.7Z" opacity="1" transform="matrix(1,0,0,1,0,0)" fill="#00ebff" class="wordmark-text-0" data-fill-palette-color="primary" id="text-0"></path></svg></g></svg></g></svg></g></svg></g></svg></g></svg></g></svg></g><path d="M81.695 41.215L81.695 0 328.895 0 328.895 247.2 81.695 247.2 81.695 205.985 95.472 205.985 95.472 233.423 315.118 233.423 315.118 13.777 95.472 13.777 95.472 41.215Z" fill="#00ebff" stroke="transparent" data-fill-palette-color="primary"></path></svg></g><defs></defs></svg><rect width="395.52" height="247.2" fill="none" stroke="none" visibility="hidden"></rect></g></svg></g></svg>